<svg width="116" height="28" viewBox="0 0 116 28" fill="none" xmlns="http://www.w3.org/2000/svg">
<path d="M0.5 21.7671C1.02014 20.6773 1.41789 19.7994 1.75445 19.1031C2.39697 17.65 3.13128 15.9548 3.95738 14.0173C4.50811 12.7459 4.99765 11.5047 5.45659 10.3544C5.91553 9.17373 6.37448 8.02338 6.77223 6.93357C7.69012 6.93357 8.45502 6.96384 9.03635 6.96384C9.83185 6.96384 10.5662 6.96384 11.3005 6.93357L10.1072 9.56727C9.92364 9.99109 9.52589 10.8993 8.94456 12.201C9.31172 11.8983 9.58708 11.6561 9.80126 11.535C10.0154 11.3836 10.2296 11.2625 10.4744 11.1112C10.7191 10.9901 10.9333 10.869 11.1781 10.7782C11.3923 10.6874 11.6676 10.6268 11.943 10.5663C12.2184 10.5057 12.5243 10.4452 12.8303 10.4149C13.1362 10.3846 13.4728 10.3544 13.7788 10.3544C14.3907 10.3544 14.972 10.4149 15.5228 10.5663C16.0429 10.7176 16.4712 10.9598 16.7466 11.2928C17.022 11.6258 17.1749 12.0193 17.1444 12.4432C17.1444 12.867 17.022 13.3211 16.8384 13.8357C16.7772 14.0173 16.6548 14.2898 16.5324 14.6228C16.41 14.9558 16.2265 15.3493 16.0123 15.8337L14.4213 19.4966C14.2071 19.9507 14.0541 20.3443 13.9623 20.647C13.84 20.9497 13.7176 21.313 13.534 21.7973C12.7691 21.7973 12.0348 21.7671 11.3617 21.7671C10.5662 21.7671 9.77066 21.7671 8.97516 21.7973C9.4647 20.8286 9.98483 19.7085 10.5356 18.4674C11.0863 17.1959 11.484 16.2575 11.7288 15.652C11.9736 14.9558 12.0042 14.5017 11.8206 14.2292C11.637 13.9568 11.3005 13.8054 10.8109 13.8054C10.3826 13.8054 9.98483 13.8962 9.58708 14.0779C9.25052 14.2292 8.88337 14.4714 8.54681 14.7741C8.27144 15.0466 7.96548 15.4401 7.62892 15.9245C7.26177 16.5299 6.80282 17.4381 6.28269 18.649C5.97673 19.315 5.54838 20.3745 4.99765 21.7973C4.26334 21.7973 3.55962 21.7671 2.9171 21.7671C2.21339 21.7671 1.41789 21.7671 0.5 21.7671ZM26.6598 10.3846C27.5777 10.3846 28.4038 10.536 29.1381 10.8084C29.8724 11.0809 30.4537 11.4744 30.8209 11.9891C31.2186 12.5037 31.4022 13.1092 31.4328 13.8054C31.4634 14.5017 31.3104 15.2585 31.0044 16.0456C30.7291 16.8327 30.3313 17.5592 29.8112 18.2555C29.2911 18.9517 28.6485 19.6177 27.8224 20.2232C26.9963 20.8286 26.0785 21.2827 25.0688 21.6157C24.0591 21.9184 23.0494 22.0698 22.0092 22.0698C21.0913 22.0698 20.2346 21.9487 19.4697 21.6763C18.7048 21.4038 18.154 21.0103 17.7563 20.4956C17.3585 19.981 17.1749 19.3755 17.1444 18.649C17.1138 17.9225 17.2667 17.1657 17.5421 16.3786C17.8481 15.5915 18.2458 14.8347 18.7965 14.1081C19.3473 13.3816 20.0204 12.7459 20.8465 12.1707C21.6726 11.5955 22.5905 11.1414 23.6002 10.8387C24.7016 10.536 25.6807 10.3846 26.6598 10.3846ZM25.4053 13.5935C24.9464 13.5935 24.4569 13.7146 24.0285 13.9568C23.5696 14.199 23.1718 14.532 22.8047 15.0163C22.4375 15.4704 22.1621 15.985 21.9786 16.5299C21.6726 17.317 21.6726 17.9527 21.9174 18.3766C22.1621 18.8004 22.5905 19.0123 23.2024 19.0123C23.6613 19.0123 24.1203 18.8912 24.5792 18.649C25.0382 18.4068 25.4359 18.0436 25.8031 17.5592C26.1702 17.0748 26.4456 16.5602 26.6598 16.0153C26.8128 15.5612 26.9046 15.1677 26.874 14.8044C26.874 14.4411 26.721 14.1384 26.4762 13.9265C26.2008 13.6843 25.8643 13.5935 25.4053 13.5935ZM30.5455 21.7671L32.8096 16.5299L34.4924 12.4432L35.1655 10.6874C35.961 10.6874 36.6647 10.7176 37.2767 10.7176C37.9804 10.7176 38.6535 10.7176 39.3266 10.6874L38.7147 12.1404C39.0513 11.8377 39.3266 11.6258 39.5408 11.4744C39.755 11.3231 39.9997 11.1717 40.2751 11.0204C40.5505 10.869 40.8258 10.7782 41.1012 10.6874C41.3766 10.5965 41.6825 10.536 41.9885 10.4754C42.2945 10.4149 42.631 10.3846 42.9676 10.3846C43.3347 10.3846 43.6713 10.4149 43.9773 10.4754C44.2832 10.536 44.4974 10.6268 44.7116 10.7176C44.8951 10.8084 45.0787 10.9295 45.2011 11.0506C45.3235 11.1717 45.4153 11.3231 45.4765 11.4744C45.5377 11.6258 45.5989 11.868 45.66 12.1404C46.1496 11.6863 46.6391 11.3231 47.0675 11.0809C47.5264 10.8387 47.9854 10.6571 48.5055 10.5663C48.995 10.4452 49.4846 10.3846 49.9741 10.3846C50.6166 10.3846 51.1674 10.4754 51.6875 10.6571C52.177 10.8387 52.5136 11.1414 52.7278 11.5955C52.9114 12.0496 52.8808 12.6248 52.636 13.3211C52.5136 13.6541 52.2994 14.1687 51.9935 14.8347C51.6875 15.5007 51.198 16.6813 50.4943 18.316C49.7905 19.9507 49.3316 21.1011 49.0868 21.7671C48.4137 21.7671 47.7712 21.7368 47.1287 21.7368C46.3638 21.7368 45.5377 21.7368 44.7116 21.7671C45.1399 20.8589 45.6295 19.6783 46.2108 18.2857C46.7921 16.8932 47.1899 15.9245 47.404 15.4099C47.5876 14.9558 47.6488 14.5925 47.6182 14.3503C47.5876 14.1081 47.4958 13.9568 47.3734 13.866C47.2205 13.7751 47.0675 13.7449 46.8533 13.7449C46.6391 13.7449 46.4249 13.7751 46.2414 13.866C46.0272 13.9568 45.813 14.0779 45.6294 14.2898C45.3541 14.532 45.1093 14.8347 44.8645 15.198C44.681 15.4704 44.4362 15.9245 44.1608 16.4997C43.8855 17.1051 43.5489 17.8922 43.1817 18.8609L42.0191 21.7671C41.2542 21.7671 40.5199 21.7368 39.908 21.7368C39.2654 21.7368 38.5005 21.7368 37.6132 21.7671C37.9192 21.1314 38.4087 20.0415 39.0513 18.4976C39.6938 16.9538 40.1221 15.9548 40.3057 15.4401C40.4587 15.0163 40.5505 14.6833 40.5505 14.4714C40.5505 14.2595 40.4893 14.0779 40.3669 13.9568C40.2445 13.8357 40.0609 13.7449 39.8162 13.7449C39.5408 13.7449 39.2654 13.8357 38.9901 13.9871C38.7147 14.1687 38.4393 14.3806 38.164 14.7136C37.8886 15.0163 37.6438 15.4401 37.3685 16.0153C37.0931 16.5602 36.7259 17.4078 36.267 18.5279C35.8081 19.648 35.3491 20.7378 34.9514 21.7671C34.0641 21.7671 33.3604 21.7368 32.8096 21.7368C32.2283 21.7671 31.4634 21.7671 30.5455 21.7671ZM63.62 18.4976C63.3753 18.9215 62.7939 19.981 61.9066 21.646C60.9888 21.8276 60.2239 21.9184 59.6425 21.979C59.0306 22.0395 58.4493 22.0698 57.8373 22.0698C56.9807 22.0698 56.1852 22.0093 55.4814 21.8882C54.8083 21.7671 54.227 21.5552 53.8292 21.2524C53.4009 20.9497 53.0949 20.5562 52.9114 20.1021C52.7278 19.648 52.636 19.1031 52.6972 18.4976C52.7278 17.8619 52.8808 17.2262 53.1255 16.5602C53.4621 15.6218 53.9822 14.7136 54.6859 13.8357C55.3896 12.9578 56.124 12.2615 56.9195 11.7469C57.6844 11.2323 58.5105 10.8993 59.3672 10.6874C60.2239 10.4754 61.0499 10.3846 61.8455 10.3846C62.6716 10.3846 63.4365 10.4754 64.1402 10.6874C64.8133 10.869 65.364 11.202 65.7006 11.6863C66.0677 12.1707 66.2207 12.7156 66.2207 13.3211C66.2207 13.9265 66.0983 14.5622 65.823 15.2585C65.67 15.6823 65.4558 16.1364 65.1804 16.651H57.4702C57.409 16.7721 57.3784 16.8629 57.3478 16.9538C57.0724 17.7408 57.1336 18.316 57.562 18.6793C57.9903 19.0426 58.6023 19.2242 59.4284 19.2242C59.9179 19.2242 60.4992 19.1636 61.1417 19.0426C61.7843 18.9517 62.6104 18.7398 63.62 18.4976ZM58.1739 14.9558H61.8149C61.8761 14.8347 61.9066 14.7136 61.9372 14.653C62.0902 14.2595 62.1208 13.9568 62.0902 13.6843C62.0596 13.4119 61.9372 13.2302 61.7231 13.1092C61.5089 12.9881 61.2641 12.9275 60.9276 12.9275C60.7134 12.9275 60.4686 12.9578 60.2544 13.0183C60.0097 13.0789 59.7955 13.2 59.5813 13.3211C59.3672 13.4421 59.1836 13.6238 59 13.7751C58.8164 13.9568 58.694 14.1081 58.5717 14.2898C58.4799 14.4411 58.3269 14.6833 58.1739 14.9558ZM66.9244 21.7671C67.5669 20.3745 68.7296 17.7106 70.3818 13.7751L72.1564 9.99109C72.4623 9.35537 72.6459 8.81046 72.8295 8.41692C73.0437 8.02338 73.2884 7.72065 73.5638 7.4482C73.8392 7.17575 74.2063 6.93357 74.6041 6.75194C75.0324 6.54003 75.4608 6.41894 75.9197 6.32812C76.3787 6.26758 76.8376 6.20703 77.2966 6.20703C77.7249 6.20703 78.1838 6.2373 78.6428 6.29785C79.1323 6.35839 79.6525 6.47948 80.295 6.66112C79.8972 7.81147 79.5913 8.78019 79.3771 9.537C78.7346 9.26455 78.1532 9.14346 77.5719 9.14346C77.1742 9.14346 76.6846 9.11319 76.5316 9.41591L74.6653 13.7751L71.3303 21.7671C70.4736 21.7671 69.7087 21.7368 69.0968 21.7368C68.5154 21.7671 67.7811 21.7671 66.9244 21.7671ZM75.3078 21.7671C75.7361 20.8892 76.0727 20.1626 76.3481 19.5875C76.6234 19.0123 76.9294 18.2857 77.2966 17.3776C77.6637 16.4997 78.0921 15.5007 78.5204 14.4109C78.9487 13.3211 79.4383 12.0799 79.989 10.6571C80.9375 10.6571 81.7024 10.6874 82.2531 10.6874C82.7733 10.6874 83.5382 10.6874 84.5173 10.6571C83.8747 12.0193 83.3546 13.2302 82.8957 14.2595C82.4673 15.2888 82.0084 16.4088 81.58 17.5592C80.7845 19.6177 80.2644 21.0103 79.989 21.7671C79.1323 21.7671 78.3674 21.7368 77.7555 21.7368C77.1436 21.7671 76.3175 21.7671 75.3078 21.7671ZM82.3755 21.7671L84.5173 16.9235L85.6493 14.1384C85.8329 13.6541 86.0471 13.1394 86.2307 12.5945C86.4142 12.0799 86.659 11.4139 86.9344 10.6268C87.8217 10.6268 88.5254 10.6571 89.0455 10.6571C89.6574 10.6571 90.3612 10.6571 91.1567 10.6268L90.6671 11.868C91.0649 11.535 91.4014 11.3231 91.6462 11.1414C91.891 10.9901 92.1357 10.8387 92.4417 10.7176C92.7171 10.5965 92.9924 10.5057 93.2984 10.4452C93.5738 10.3846 93.8491 10.3544 94.1245 10.3544C94.3998 10.3544 94.6752 10.3846 94.9506 10.4754C94.6752 11.2625 94.4304 11.9285 94.2775 12.4432L93.7267 14.1081C93.3596 13.9871 93.023 13.9265 92.6559 13.9265C92.2275 13.9265 91.7992 13.9871 91.4626 14.1081C91.0955 14.2292 90.7283 14.4411 90.3917 14.6833C90.0552 14.9558 89.7492 15.2585 89.4433 15.652C89.1679 16.0456 88.8313 16.651 88.4642 17.4684C88.097 18.2857 87.6993 19.2545 87.3015 20.3443C87.1485 20.7378 86.9956 21.1919 86.812 21.7368C86.1083 21.7368 85.4046 21.7065 84.6702 21.7065C83.9665 21.7671 83.2016 21.7671 82.3755 21.7671ZM92.0745 21.5552C92.1663 21.2222 92.2581 20.8892 92.3499 20.5562C92.4417 20.1929 92.5947 19.7085 92.7477 19.1031L92.9618 18.316C93.5738 18.5885 94.0939 18.8004 94.5834 18.9215C95.0424 19.0426 95.5013 19.1334 95.9297 19.1334C96.2968 19.1334 96.6028 19.1031 96.8475 19.0426C97.0923 18.982 97.3065 18.8912 97.4289 18.7701C97.5819 18.649 97.6737 18.5279 97.7348 18.3766C97.7654 18.2555 97.796 18.1344 97.7348 18.0436C97.7042 17.9225 97.5819 17.7711 97.3983 17.5895C96.9699 17.1657 96.5722 16.7721 96.2356 16.4088C95.8991 16.0456 95.6849 15.7429 95.5625 15.4704C95.4401 15.198 95.3789 14.8952 95.3483 14.5925C95.3483 14.2595 95.4095 13.9568 95.5319 13.5935C95.7461 12.9881 96.1438 12.4432 96.664 11.8983C97.2147 11.3836 97.8572 10.9901 98.6221 10.7479C99.387 10.5057 100.244 10.3846 101.223 10.3846C102.232 10.3846 103.487 10.5057 104.986 10.7782L104.038 13.8357C103.273 13.4724 102.477 13.3211 101.682 13.3211C101.1 13.3211 100.672 13.3816 100.366 13.5027C100.06 13.6238 99.8766 13.8054 99.7848 14.0476C99.7542 14.1384 99.7542 14.199 99.7542 14.2898C99.7542 14.3503 99.7848 14.4411 99.8154 14.5017C99.8766 14.5925 99.9378 14.653 99.999 14.7439C100.091 14.8347 100.274 15.0163 100.611 15.319C100.947 15.6218 101.192 15.8639 101.376 16.0759C101.682 16.4088 101.865 16.6813 101.988 16.9538C102.11 17.2262 102.171 17.5289 102.171 17.8317C102.171 18.1344 102.11 18.4674 101.988 18.8004C101.804 19.315 101.498 19.7994 101.07 20.2232C100.641 20.647 100.152 21.0103 99.5094 21.313C98.8975 21.6157 98.255 21.7973 97.6431 21.9184C97.0005 22.0395 96.3886 22.1001 95.7461 22.1001C95.3177 22.1001 94.7976 22.0698 94.1857 21.979C93.5432 21.8882 92.8394 21.7368 92.0745 21.5552ZM112.329 18.5885C111.962 19.1939 111.626 19.7994 111.32 20.3745L110.585 21.7065C109.79 21.8579 109.208 21.979 108.78 22.0093C108.352 22.0395 107.954 22.0698 107.587 22.0698C106.975 22.0698 106.424 22.0093 105.996 21.9184C105.537 21.7973 105.231 21.6157 104.986 21.3433C104.772 21.0708 104.65 20.7378 104.68 20.3745C104.711 20.0113 104.772 19.6177 104.925 19.2242C104.956 19.1636 105.017 19.0123 105.078 18.8306C105.139 18.649 105.323 18.2252 105.598 17.5895L107.25 13.8357H105.537C105.751 13.3211 106.026 12.6853 106.363 11.868L106.761 10.8387H108.597C108.78 10.5057 109.086 9.77918 109.576 8.6591L111.595 8.26556C111.962 8.20501 112.758 8.02338 113.981 7.75093C113.584 8.68937 113.155 9.71864 112.727 10.8084H115.236C114.624 12.3221 114.226 13.3211 114.043 13.8054H111.503L110.371 16.5299C110.218 16.9235 110.096 17.1959 110.065 17.317C109.943 17.6803 109.851 17.9527 109.851 18.1949C109.851 18.4371 109.912 18.5885 110.065 18.7096C110.218 18.8004 110.432 18.8609 110.646 18.8609C110.83 18.8609 111.014 18.8609 111.197 18.8306C111.411 18.7701 111.779 18.7096 112.329 18.5885Z" fill="#1579BD"/>
<path fill-rule="evenodd" clip-rule="evenodd" d="M68.7278 12.625L67.5039 15.5614L75.9791 15.5917L77.1111 12.625H68.7278Z" fill="#1579BD"/>
<path fill-rule="evenodd" clip-rule="evenodd" d="M81.2734 6.7545C82.8644 7.90486 85.924 5.5436 88.0657 6.7545C87.7904 7.66268 87.4232 8.81303 87.1478 9.69093C85.2203 8.44976 82.5278 10.8716 80.3555 9.69093C80.6308 8.81303 80.998 7.6324 81.2734 6.7545Z" fill="#12B698"/>
<path fill-rule="evenodd" clip-rule="evenodd" d="M76.5299 2.96832C77.8761 3.96731 80.4768 1.93906 82.282 2.96832C82.0372 3.72513 81.7312 4.72412 81.4865 5.48094C79.8343 4.4214 77.5701 6.47993 75.7344 5.48094C76.0097 4.72412 76.3157 3.72513 76.5299 2.96832Z" fill="#12B698"/>
<path fill-rule="evenodd" clip-rule="evenodd" d="M72.3723 0.697479C73.5044 1.51484 75.6767 -0.180422 77.2065 0.697479C76.9924 1.3332 76.7476 2.15056 76.5334 2.78628C75.1566 1.90838 73.2596 3.63391 71.6992 2.78628C71.9134 2.15056 72.1888 1.3332 72.3723 0.697479Z" fill="#12B698"/>
<path d="M67.1087 26.7616V26.3378C67.1087 26.247 67.1087 26.0956 67.0781 25.914L66.9557 24.1885L66.8945 23.6133C67.0781 23.6133 67.2311 23.6133 67.3535 23.6133C67.4759 23.6133 67.6594 23.6133 67.8124 23.6133C67.8124 23.8555 67.8124 24.0371 67.843 24.1582L67.9042 25.0966C67.9042 25.3085 67.9348 25.5507 67.9348 25.8232L68.0572 25.4902L68.4855 24.4306L68.7915 23.6133C69.0057 23.6133 69.1892 23.6133 69.3422 23.6133C69.4952 23.6133 69.6788 23.6133 69.893 23.6133V24.582V25.8232L70.0459 25.4902C70.0765 25.4296 70.1071 25.3691 70.1377 25.3085C70.1683 25.248 70.2295 25.1269 70.3213 24.9453L70.7497 24.0674L70.9638 23.6133C71.1474 23.6133 71.3004 23.6133 71.4228 23.6133C71.5452 23.6133 71.6981 23.6133 71.8817 23.6133L70.5661 26.2773L70.3519 26.7313C70.1071 26.7313 69.9236 26.7313 69.74 26.7313C69.5564 26.7313 69.3422 26.7313 69.1281 26.7313V26.4286L69.0975 25.3388C69.0975 25.2783 69.0975 25.2177 69.0975 25.1269C69.0975 25.0664 69.0975 24.9453 69.0975 24.7939L68.9751 25.1572C68.9445 25.248 68.9139 25.3085 68.8833 25.3994L68.302 26.7313C68.0572 26.7313 67.8736 26.7313 67.7206 26.7313C67.5371 26.7616 67.3535 26.7616 67.1087 26.7616ZM74.0235 26.0956C73.9929 26.1864 73.9317 26.3983 73.8093 26.7616C73.6257 26.7919 73.4727 26.8222 73.3503 26.8222C73.228 26.8222 73.1056 26.8524 72.9832 26.8524C72.7996 26.8524 72.616 26.8524 72.4936 26.8222C72.3407 26.7919 72.2183 26.7616 72.1265 26.7011C72.0347 26.6405 71.9429 26.5497 71.8817 26.4589C71.8205 26.3681 71.7899 26.247 71.7593 26.1259C71.7287 26.0048 71.7287 25.8534 71.7593 25.7324C71.7899 25.5507 71.8511 25.3388 71.9735 25.1572C72.0653 24.9755 72.2183 24.8242 72.3407 24.7334C72.4936 24.6425 72.6466 24.5517 72.7996 24.5215C72.9832 24.4912 73.1362 24.4609 73.3197 24.4609C73.5033 24.4609 73.6563 24.4912 73.8093 24.5215C73.9623 24.5517 74.0846 24.6425 74.1764 24.7334C74.2682 24.8242 74.3294 24.9453 74.36 25.0664C74.3906 25.1874 74.3906 25.3388 74.36 25.4902C74.36 25.581 74.3294 25.6718 74.2988 25.7929H72.6772C72.6772 25.8232 72.6772 25.8534 72.6772 25.8534C72.6466 26.0048 72.7078 26.1259 72.7996 26.2167C72.922 26.3075 73.0444 26.3378 73.228 26.3378C73.3197 26.3378 73.4421 26.3378 73.5951 26.3075C73.6563 26.1864 73.8399 26.1259 74.0235 26.0956ZM72.7078 25.3388H73.4727C73.4727 25.3085 73.4727 25.2783 73.4727 25.2783C73.4727 25.1874 73.4727 25.1269 73.4727 25.0664C73.4421 25.0058 73.4115 24.9755 73.3809 24.9453C73.3197 24.915 73.2586 24.915 73.1974 24.915C73.1362 24.915 73.1056 24.915 73.0444 24.9453C73.0138 24.9453 72.9526 24.9755 72.922 25.0058C72.8914 25.0361 72.8608 25.0664 72.8302 25.0966C72.7996 25.1269 72.769 25.1572 72.769 25.1874C72.7384 25.2177 72.7384 25.2783 72.7078 25.3388ZM75.8898 23.6436L75.4921 24.1582C75.4309 24.2187 75.3391 24.3398 75.2167 24.5517H75.0025C74.9719 24.5517 74.9107 24.5517 74.7884 24.5517L75.2167 23.6436H75.5227C75.5533 23.6436 75.6757 23.6436 75.8898 23.6436ZM75.6145 26.7616L75.7368 26.2773L76.0734 24.5517L76.2264 23.6436C76.4406 23.6436 76.5935 23.6436 76.7159 23.6436C76.8689 23.6436 77.0219 23.6436 77.1749 23.6436L77.0219 24.3398L76.6853 26.0653L76.5629 26.7616C76.41 26.7616 76.257 26.7616 76.104 26.7616H75.6145ZM77.0831 26.7616L77.2055 26.2773L77.542 24.5517L77.695 23.6436C77.9092 23.6436 78.0622 23.6436 78.1845 23.6436C78.3375 23.6436 78.4905 23.6436 78.6435 23.6436L78.4905 24.3398L78.154 26.0653L78.0316 26.7616C77.8786 26.7616 77.7256 26.7616 77.5726 26.7616H77.0831ZM81.5501 26.0956C81.4889 26.2167 81.4583 26.3378 81.4277 26.4589L81.336 26.7313C81.183 26.7616 81.0606 26.7919 80.9688 26.7919C80.877 26.7919 80.7852 26.7919 80.724 26.7919C80.6016 26.7919 80.4793 26.7919 80.3875 26.7616C80.2957 26.7313 80.2039 26.7011 80.1427 26.6405C80.0815 26.58 80.0509 26.5194 80.0203 26.4286C80.0203 26.3378 80.0203 26.2773 80.0203 26.1864C80.0203 26.1562 80.0203 26.1562 80.0203 26.0956C80.0203 26.0653 80.0509 25.9745 80.0815 25.8232L80.2651 25.0361H79.8979C79.9285 24.9453 79.9591 24.7939 79.9897 24.6123L80.0203 24.4004H80.4181C80.4487 24.3398 80.4793 24.1885 80.5099 23.9463L80.9076 23.8555C80.9688 23.8555 81.1524 23.7949 81.3971 23.7344C81.3665 23.9463 81.3054 24.1582 81.2748 24.3701H81.7949C81.7337 24.6728 81.7031 24.8847 81.6725 25.0058H81.1524L81.03 25.581C80.9994 25.6718 80.9994 25.7324 80.9994 25.7324C80.9994 25.7929 80.9994 25.8534 80.9994 25.914C80.9994 25.9745 81.03 26.0048 81.0606 26.0048C81.0912 26.0351 81.1524 26.0351 81.183 26.0351C81.2136 26.0351 81.2442 26.0351 81.3054 26.0351C81.3666 26.1562 81.4583 26.1259 81.5501 26.0956ZM82.2232 25.0966C82.2844 24.9453 82.315 24.8544 82.315 24.7939C82.3456 24.7334 82.3456 24.6425 82.4068 24.5215C82.8658 24.4306 83.2635 24.3701 83.5695 24.3701C83.7531 24.3701 83.906 24.4004 84.059 24.4306C84.212 24.4609 84.3038 24.5215 84.3956 24.6123C84.4568 24.7031 84.4874 24.8242 84.4568 25.0058C84.4568 25.0966 84.3956 25.2783 84.3344 25.581C84.2732 25.8837 84.1814 26.2773 84.0896 26.7616C83.9366 26.7616 83.7837 26.7616 83.6307 26.7616C83.4777 26.7616 83.3247 26.7616 83.1717 26.7616C83.2329 26.58 83.2941 26.247 83.3859 25.7324C83.3247 25.7626 83.2635 25.7929 83.2329 25.7929C83.2023 25.7929 83.1411 25.8232 83.0493 25.8534C82.9576 25.8837 82.8964 25.914 82.8352 25.914C82.774 25.9443 82.7434 25.9443 82.7128 25.9745C82.6822 26.0048 82.6516 26.0351 82.621 26.0653C82.5904 26.0956 82.5904 26.1259 82.5904 26.1562C82.5904 26.2167 82.5904 26.247 82.621 26.2773C82.6516 26.3075 82.7128 26.3378 82.8046 26.3378C82.8352 26.3378 82.8658 26.3378 82.8964 26.3378C82.927 26.3378 82.9882 26.3075 83.0493 26.3075C82.9882 26.4286 82.8964 26.58 82.8046 26.8222C82.6822 26.8524 82.5292 26.8524 82.4374 26.8524C82.2538 26.8524 82.1009 26.8222 81.9785 26.7616C81.8561 26.7011 81.7643 26.6103 81.7337 26.5194C81.6725 26.3983 81.6725 26.2773 81.6725 26.1562C81.6725 26.0956 81.7031 26.0048 81.7337 25.9443C81.7643 25.8837 81.8255 25.8232 81.8867 25.7324C81.9479 25.6718 82.0091 25.6113 82.1009 25.5507C82.1927 25.4902 82.2844 25.4599 82.4068 25.4296C82.5292 25.3994 82.7128 25.3388 82.8964 25.3085C82.9882 25.2783 83.0493 25.2783 83.1105 25.248C83.1717 25.2177 83.2329 25.2177 83.2635 25.1874C83.2941 25.1874 83.3247 25.1572 83.3247 25.1269C83.3553 25.0966 83.3553 25.0966 83.3859 25.0664C83.3859 25.0361 83.4165 25.0361 83.4165 25.0058C83.4165 24.9453 83.4165 24.915 83.3553 24.8847C83.3247 24.8545 83.2329 24.8242 83.1411 24.8242C82.9882 24.8847 82.6516 24.9453 82.2232 25.0966ZM84.6097 26.7616C84.6709 26.58 84.7015 26.3983 84.7321 26.2773C84.7627 26.0956 84.8239 25.914 84.8545 25.6415L84.9769 25.0966C85.0381 24.8544 85.0687 24.6123 85.0993 24.4004C85.1605 24.1279 85.1911 23.8857 85.2217 23.6133C85.4358 23.6133 85.5888 23.6133 85.7112 23.6133C85.8336 23.6133 85.9866 23.6133 86.1702 23.6133C86.0784 24.0068 85.956 24.5215 85.8336 25.0966C85.7112 25.7021 85.6194 26.247 85.5276 26.7313C85.3441 26.7313 85.1911 26.7313 85.0687 26.7313C84.9463 26.7616 84.7933 26.7616 84.6097 26.7616ZM85.8336 25.4599L86.3231 24.8847L86.6903 24.4306C86.9045 24.4306 87.0575 24.4306 87.1798 24.4306C87.3328 24.4306 87.5164 24.4306 87.7306 24.4306L87.1798 25.0361C87.0575 25.1874 86.9045 25.3085 86.7821 25.4902C86.8739 25.7021 87.0574 26.1259 87.3634 26.7919C87.1798 26.7919 87.0269 26.7919 86.8739 26.7919C86.7209 26.7919 86.5679 26.7919 86.3537 26.7919L86.262 26.5194C86.2314 26.4286 86.2008 26.3378 86.1702 26.2773C86.1702 26.247 86.0784 26.0653 85.9254 25.7021L85.8336 25.4599ZM89.9947 26.0956C89.9641 26.1864 89.9029 26.3983 89.7805 26.7616C89.5969 26.7919 89.444 26.8222 89.3216 26.8222C89.1992 26.8222 89.0768 26.8524 88.9544 26.8524C88.7708 26.8524 88.5873 26.8524 88.4649 26.8222C88.3119 26.7919 88.1895 26.7616 88.0977 26.7011C88.0059 26.6405 87.9141 26.5497 87.853 26.4589C87.7918 26.3681 87.7612 26.247 87.7306 26.1259C87.7 26.0048 87.7 25.8534 87.7306 25.7324C87.7612 25.5507 87.8224 25.3388 87.9447 25.1572C88.0365 24.9755 88.1895 24.8242 88.3119 24.7334C88.4649 24.6425 88.6179 24.5517 88.7708 24.5215C88.9544 24.4912 89.1074 24.4609 89.291 24.4609C89.4746 24.4609 89.6275 24.4912 89.7805 24.5215C89.9335 24.5517 90.0559 24.6425 90.1477 24.7334C90.2395 24.8242 90.3007 24.9453 90.3312 25.0664C90.3618 25.1874 90.3618 25.3388 90.3312 25.4902C90.3312 25.581 90.3006 25.6718 90.2701 25.7929H88.6485C88.6485 25.8232 88.6485 25.8534 88.6485 25.8534C88.6179 26.0048 88.6791 26.1259 88.7708 26.2167C88.8932 26.3075 89.0156 26.3378 89.1992 26.3378C89.291 26.3378 89.4134 26.3378 89.5663 26.3075C89.6275 26.1864 89.7805 26.1259 89.9947 26.0956ZM88.6791 25.3388H89.444C89.444 25.3085 89.444 25.2783 89.444 25.2783C89.444 25.1874 89.444 25.1269 89.444 25.0664C89.4134 25.0058 89.3828 24.9755 89.3522 24.9453C89.291 24.915 89.2298 24.915 89.1686 24.915C89.1074 24.915 89.0768 24.915 89.0156 24.9453C88.985 24.9453 88.9238 24.9755 88.8932 25.0058C88.8626 25.0361 88.832 25.0664 88.8014 25.0966C88.7708 25.1269 88.7402 25.1572 88.7402 25.1874C88.7096 25.2177 88.6791 25.2783 88.6791 25.3388ZM91.2185 27.8212C91.2185 27.4579 91.2185 27.2157 91.2185 27.1552C91.3103 27.1854 91.4021 27.246 91.4633 27.246C91.5245 27.2762 91.5857 27.2762 91.6469 27.2762C91.7081 27.2762 91.7693 27.2762 91.7999 27.246C91.8611 27.246 91.8917 27.2157 91.9223 27.1854C91.9529 27.1552 91.9834 27.1249 92.0446 27.0946C92.0752 27.0643 92.1058 27.0038 92.1364 26.9735C92.167 26.9433 92.1976 26.8827 92.1976 26.8222L91.9528 25.5204L91.7387 24.4306C91.9834 24.4306 92.1364 24.4306 92.2282 24.4306C92.3506 24.4306 92.473 24.4306 92.6872 24.4306C92.6872 24.5517 92.7178 24.7636 92.7484 25.0361C92.7789 25.3388 92.8095 25.5507 92.8095 25.7021C92.8095 25.7929 92.8095 25.914 92.8095 26.0351L92.8707 25.8534C92.9013 25.7929 92.9319 25.7626 92.9625 25.6718C92.9931 25.6113 93.0237 25.5204 93.0849 25.4599L93.2991 25.0361L93.6356 24.4004C93.8192 24.4004 93.9722 24.4004 94.064 24.4004C94.1558 24.4004 94.3088 24.4004 94.5229 24.4004L93.911 25.3994L92.8095 27.246C92.7484 27.3368 92.6872 27.4276 92.626 27.4882C92.5648 27.5487 92.5036 27.579 92.473 27.6395C92.4118 27.6698 92.3506 27.7001 92.2894 27.7303C92.1976 27.7606 92.1058 27.7909 92.014 27.8212C91.9223 27.8514 91.7999 27.8514 91.7081 27.8514C91.6469 27.8514 91.5857 27.8514 91.5245 27.8514C91.4327 27.8514 91.3715 27.8212 91.3409 27.8212C91.3715 27.8514 91.3103 27.8212 91.2185 27.8212ZM96.1445 24.3701C96.3281 24.3701 96.5117 24.4004 96.6953 24.4609C96.8788 24.5215 97.0012 24.6123 97.093 24.7031C97.1848 24.8242 97.2766 24.9453 97.3072 25.0966C97.3378 25.248 97.3378 25.3994 97.3072 25.581C97.2766 25.7324 97.246 25.914 97.1542 26.0351C97.093 26.1864 96.9706 26.3075 96.8177 26.4589C96.6647 26.58 96.5117 26.6708 96.2975 26.7616C96.0833 26.8222 95.8998 26.8524 95.6856 26.8524C95.502 26.8524 95.3184 26.8222 95.1349 26.7616C94.9513 26.7011 94.8289 26.6103 94.7065 26.5194C94.6147 26.3983 94.5229 26.2773 94.4923 26.1259C94.4617 25.9745 94.4617 25.8232 94.4617 25.6415C94.4923 25.4599 94.5535 25.3085 94.6147 25.1572C94.7065 25.0058 94.7983 24.8847 94.9513 24.7636C95.1043 24.6425 95.2572 24.5517 95.4714 24.4912C95.7162 24.4004 95.9304 24.3701 96.1445 24.3701ZM96.0222 25.0361C95.9304 25.0361 95.8386 25.0664 95.7468 25.0966C95.655 25.1572 95.5938 25.2177 95.5326 25.3085C95.4714 25.3994 95.4408 25.5204 95.4102 25.6113C95.3796 25.7929 95.4102 25.914 95.4714 26.0048C95.5326 26.0956 95.655 26.1259 95.7774 26.1259C95.8692 26.1259 95.961 26.0956 96.0527 26.0351C96.1445 25.9745 96.2057 25.914 96.2669 25.8232C96.3281 25.7324 96.3587 25.6113 96.3893 25.4902C96.3893 25.3994 96.3893 25.3085 96.3893 25.248C96.3587 25.1572 96.3281 25.0966 96.2669 25.0664C96.1751 25.0664 96.1139 25.0361 96.0222 25.0361ZM100.061 26.7616C99.8773 26.7616 99.7243 26.7616 99.6325 26.7616C99.4795 26.7616 99.3265 26.7616 99.2042 26.7616L99.2348 26.4589C99.1736 26.5194 99.1124 26.58 99.0818 26.6103C99.0512 26.6405 98.99 26.6708 98.9288 26.7011C98.8676 26.7313 98.837 26.7616 98.7758 26.7616C98.7146 26.7919 98.6534 26.7919 98.5616 26.7919C98.5004 26.7919 98.4087 26.8222 98.3475 26.8222C98.2251 26.8222 98.1027 26.8222 98.0109 26.7919C97.9191 26.7616 97.8273 26.7011 97.7355 26.6405C97.6743 26.58 97.6131 26.4892 97.6131 26.3983C97.5826 26.3075 97.5826 26.2167 97.6131 26.0956C97.6131 26.0653 97.6132 26.0351 97.6437 25.9745L97.7661 25.4599C97.7967 25.2783 97.8579 25.0664 97.8885 24.8242C97.9191 24.6728 97.9497 24.5517 97.9497 24.4306C98.1333 24.4306 98.3169 24.4306 98.4393 24.4306C98.5616 24.4306 98.7146 24.4306 98.8982 24.4306L98.684 25.3085C98.6534 25.4296 98.6228 25.5204 98.6228 25.581C98.6228 25.6415 98.6228 25.6718 98.5922 25.6718C98.5616 25.8232 98.5922 25.9443 98.6534 26.0048C98.7146 26.0653 98.7758 26.0956 98.8676 26.0956C98.8982 26.0956 98.9288 26.0956 98.99 26.0653C99.0206 26.0653 99.0818 26.0351 99.1124 26.0048C99.143 25.9745 99.1736 25.9745 99.2042 25.9443C99.2348 25.914 99.2653 25.8837 99.2959 25.8534C99.3265 25.7929 99.3571 25.7626 99.3877 25.7021C99.4183 25.6113 99.4489 25.5204 99.4795 25.3994C99.5101 25.3085 99.5407 25.1572 99.5713 24.9453L99.6631 24.4609C99.8773 24.4609 100.03 24.4609 100.153 24.4609C100.306 24.4609 100.428 24.4609 100.581 24.4609C100.489 24.8545 100.397 25.2177 100.336 25.581C100.214 25.8837 100.153 26.3075 100.061 26.7616ZM101.744 26.7616C101.805 26.5194 101.835 26.3378 101.897 26.1864C101.958 25.8837 102.05 25.5204 102.141 25.1269C102.203 24.8545 102.233 24.6123 102.294 24.3398C102.325 24.0976 102.386 23.8555 102.417 23.6133C102.6 23.6133 102.784 23.6133 102.906 23.6133C103.059 23.6133 103.243 23.6133 103.365 23.6133L103.243 24.1582C103.212 24.249 103.182 24.4306 103.12 24.7031C103.182 24.6425 103.243 24.582 103.273 24.5517C103.304 24.5215 103.365 24.4912 103.396 24.4609C103.426 24.4306 103.488 24.4004 103.518 24.4004C103.549 24.3701 103.61 24.3701 103.671 24.3398C103.732 24.3398 103.794 24.3095 103.855 24.3095C103.916 24.3095 103.977 24.3095 104.069 24.3095C104.191 24.3095 104.314 24.3095 104.436 24.3398C104.559 24.3701 104.65 24.4306 104.742 24.4912C104.803 24.5517 104.864 24.6425 104.895 24.7334C104.926 24.8242 104.926 24.915 104.895 25.0361C104.895 25.0664 104.864 25.1269 104.864 25.1874C104.864 25.248 104.834 25.3388 104.803 25.4599L104.65 26.247C104.62 26.3378 104.62 26.4286 104.589 26.4892C104.589 26.5497 104.558 26.6405 104.558 26.7313C104.406 26.7313 104.253 26.7313 104.1 26.7313C103.947 26.7313 103.763 26.7313 103.61 26.7313C103.671 26.5194 103.732 26.3075 103.794 26.0351C103.855 25.7626 103.885 25.581 103.916 25.4296C103.947 25.2783 103.916 25.1874 103.885 25.1269C103.824 25.0664 103.763 25.0361 103.671 25.0361C103.579 25.0361 103.488 25.0664 103.426 25.0966C103.365 25.1269 103.304 25.1874 103.243 25.248C103.182 25.3085 103.151 25.3994 103.12 25.4902C103.059 25.6113 103.029 25.8232 102.967 26.0653C102.937 26.2167 102.906 26.4286 102.845 26.7313C102.692 26.7313 102.539 26.7313 102.417 26.7313C102.111 26.7616 101.958 26.7616 101.744 26.7616ZM106.731 24.3701C106.914 24.3701 107.098 24.4004 107.282 24.4609C107.465 24.5215 107.588 24.6123 107.679 24.7031C107.771 24.8242 107.863 24.9453 107.893 25.0966C107.924 25.248 107.924 25.3994 107.893 25.581C107.863 25.7324 107.832 25.914 107.741 26.0351C107.679 26.1864 107.557 26.3075 107.404 26.4589C107.251 26.58 107.098 26.6708 106.884 26.7616C106.67 26.8222 106.486 26.8524 106.272 26.8524C106.088 26.8524 105.905 26.8222 105.721 26.7616C105.538 26.7011 105.415 26.6103 105.293 26.5194C105.201 26.3983 105.109 26.2773 105.079 26.1259C105.048 25.9745 105.048 25.8232 105.048 25.6415C105.079 25.4599 105.14 25.3085 105.201 25.1572C105.293 25.0058 105.385 24.8847 105.538 24.7636C105.691 24.6425 105.844 24.5517 106.058 24.4912C106.333 24.4004 106.547 24.3701 106.731 24.3701ZM106.639 25.0361C106.547 25.0361 106.455 25.0664 106.364 25.0966C106.272 25.1572 106.211 25.2177 106.15 25.3085C106.088 25.3994 106.058 25.5204 106.027 25.6113C105.997 25.7929 106.027 25.914 106.088 26.0048C106.15 26.0956 106.272 26.1259 106.394 26.1259C106.486 26.1259 106.578 26.0956 106.67 26.0351C106.761 25.9745 106.823 25.914 106.884 25.8232C106.945 25.7324 106.976 25.6113 107.006 25.4902C107.006 25.3994 107.006 25.3085 107.006 25.248C106.976 25.1572 106.945 25.0966 106.884 25.0664C106.792 25.0664 106.731 25.0361 106.639 25.0361ZM108.077 26.7616L108.322 25.6415L108.505 24.7636L108.567 24.4004C108.75 24.4004 108.873 24.4004 109.026 24.4004C109.179 24.4004 109.301 24.4004 109.454 24.4004L109.393 24.7031C109.454 24.6425 109.484 24.582 109.546 24.5517C109.576 24.5215 109.637 24.4912 109.668 24.4609C109.729 24.4306 109.76 24.4004 109.821 24.4004C109.882 24.3701 109.943 24.3701 110.005 24.3701C110.066 24.3701 110.127 24.3398 110.219 24.3398C110.311 24.3398 110.372 24.3398 110.433 24.3701C110.494 24.3701 110.555 24.4004 110.586 24.4306C110.617 24.4609 110.678 24.4609 110.708 24.4912C110.739 24.5215 110.77 24.5517 110.8 24.582C110.831 24.6123 110.861 24.6728 110.861 24.7334C110.953 24.6425 111.014 24.5517 111.106 24.5215C111.198 24.4609 111.29 24.4306 111.381 24.4004C111.473 24.3701 111.596 24.3701 111.687 24.3701C111.81 24.3701 111.932 24.4004 112.055 24.4306C112.177 24.4609 112.269 24.5215 112.33 24.6425C112.391 24.7334 112.422 24.8545 112.391 25.0058C112.391 25.0664 112.361 25.1874 112.33 25.3388C112.299 25.4902 112.238 25.7324 112.177 26.0653C112.116 26.3983 112.055 26.6405 112.024 26.7919C111.871 26.7919 111.749 26.7919 111.626 26.7919C111.473 26.7919 111.29 26.7919 111.106 26.7919C111.137 26.6103 111.198 26.3681 111.259 26.0653C111.32 25.7626 111.351 25.581 111.381 25.4599C111.381 25.3691 111.412 25.2783 111.381 25.248C111.351 25.1874 111.351 25.1572 111.32 25.1572C111.29 25.1269 111.259 25.1269 111.198 25.1269C111.167 25.1269 111.106 25.1269 111.075 25.1572C111.045 25.1874 111.014 25.2177 110.953 25.248C110.923 25.3085 110.861 25.3691 110.831 25.4296C110.8 25.4902 110.77 25.581 110.739 25.7021C110.708 25.8232 110.678 26.0048 110.647 26.1864L110.525 26.7919C110.372 26.7919 110.219 26.7919 110.066 26.7919C109.943 26.7919 109.76 26.7919 109.576 26.7919C109.607 26.6708 109.668 26.4286 109.729 26.0956C109.79 25.7626 109.852 25.5507 109.852 25.4599C109.852 25.3691 109.882 25.3085 109.852 25.248C109.852 25.1874 109.821 25.1572 109.79 25.1269C109.76 25.0966 109.729 25.0966 109.668 25.0966C109.607 25.0966 109.546 25.1269 109.515 25.1572C109.454 25.1874 109.423 25.248 109.362 25.3085C109.332 25.3691 109.27 25.4599 109.24 25.581C109.209 25.7021 109.179 25.8837 109.117 26.0956C109.056 26.3378 109.026 26.5497 108.995 26.7919C108.811 26.7919 108.658 26.7919 108.536 26.7919C108.444 26.7616 108.291 26.7616 108.077 26.7616ZM114.9 26.0956C114.869 26.1864 114.808 26.3983 114.686 26.7616C114.502 26.7919 114.349 26.8222 114.227 26.8222C114.105 26.8222 113.982 26.8524 113.86 26.8524C113.676 26.8524 113.493 26.8524 113.37 26.8222C113.217 26.7919 113.095 26.7616 113.003 26.7011C112.911 26.6405 112.819 26.5497 112.758 26.4589C112.697 26.3681 112.667 26.247 112.636 26.1259C112.605 26.0048 112.605 25.8534 112.636 25.7324C112.667 25.5507 112.728 25.3388 112.85 25.1572C112.942 24.9755 113.095 24.8242 113.217 24.7334C113.37 24.6425 113.523 24.5517 113.676 24.5215C113.86 24.4912 114.013 24.4609 114.196 24.4609C114.38 24.4609 114.533 24.4912 114.686 24.5215C114.839 24.5517 114.961 24.6425 115.053 24.7334C115.145 24.8242 115.206 24.9453 115.237 25.0664C115.267 25.1874 115.267 25.3388 115.237 25.4902C115.237 25.581 115.206 25.6718 115.175 25.7929H113.554C113.554 25.8232 113.554 25.8534 113.554 25.8534C113.523 26.0048 113.584 26.1259 113.676 26.2167C113.799 26.3075 113.921 26.3378 114.105 26.3378C114.196 26.3378 114.319 26.3378 114.472 26.3075C114.533 26.1864 114.716 26.1259 114.9 26.0956ZM113.584 25.3388H114.349C114.349 25.3085 114.349 25.2783 114.349 25.2783C114.349 25.1874 114.349 25.1269 114.349 25.0664C114.319 25.0058 114.288 24.9755 114.258 24.9453C114.196 24.915 114.135 24.915 114.074 24.915C114.013 24.915 113.982 24.915 113.921 24.9453C113.89 24.9453 113.829 24.9755 113.799 25.0058C113.768 25.0361 113.737 25.0664 113.707 25.0966C113.676 25.1269 113.646 25.1572 113.646 25.1874C113.615 25.2177 113.615 25.2783 113.584 25.3388Z" fill="#12B698"/>
</svg>
